<svg width="701" height="807" viewBox="0 0 701 807" fill="none" xmlns="http://www.w3.org/2000/svg">
<g clip-path="url(#clip0_22728_11332)" filter="url(#filter0_d_22728_11332)">
<path fill-rule="evenodd" clip-rule="evenodd" d="M249.112 340H436.082C489.793 340 534.618 362.912 562.49 401.63C590.34 440.35 591.199 504.956 574.958 555.498L554.194 620.023C545.522 646.966 504.918 774.384 497 799H395C395 799 396.559 800.366 481.767 535.5C489.29 512.126 493.586 474.185 481.767 457.777C469.968 441.37 450.06 431.66 423.718 431.66H270.886C240.876 431.66 214.283 451.178 204.999 480.005L249.112 340Z" fill="url(#paint0_linear_22728_11332)"/>
<path fill-rule="evenodd" clip-rule="evenodd" d="M103.344 799H3.63062C88.4982 532.509 174.329 266.331 259.698 0H359.276C358.856 1.33198 358.431 2.6675 357.999 4.00646C219.866 429.03 266.985 285.497 103.344 799Z" fill="#F0145A"/>
</g>
<defs>
<filter id="filter0_d_22728_11332" x="0" y="0" width="705" height="807" filterUnits="userSpaceOnUse" color-interpolation-filters="sRGB">
<feFlood flood-opacity="0" result="BackgroundImageFix"/>
<feColorMatrix in="SourceAlpha" type="matrix" values="0 0 0 0 0 0 0 0 0 0 0 0 0 0 0 0 0 0 127 0" result="hardAlpha"/>
<feOffset dy="4"/>
<feGaussianBlur stdDeviation="2"/>
<feComposite in2="hardAlpha" operator="out"/>
<feColorMatrix type="matrix" values="0 0 0 0 0 0 0 0 0 0 0 0 0 0 0 0 0 0 0.25 0"/>
<feBlend mode="normal" in2="BackgroundImageFix" result="effect1_dropShadow_22728_11332"/>
<feBlend mode="normal" in="SourceGraphic" in2="effect1_dropShadow_22728_11332" result="shape"/>
</filter>
<linearGradient id="paint0_linear_22728_11332" x1="525.823" y1="798.999" x2="272.503" y2="516.696" gradientUnits="userSpaceOnUse">
<stop stop-color="#F0145A"/>
<stop offset="1" stop-color="#693264"/>
</linearGradient>
<clipPath id="clip0_22728_11332">
<rect width="697" height="799" fill="white" transform="translate(4)"/>
</clipPath>
</defs>
</svg>
